<mxfile host="app.diagrams.net" modified="2022-03-17T12:24:09.473Z" agent="5.0 (Windows)" etag="sBmZhXnDCS_7VXHvtxXA" version="17.1.2" type="github">
  <diagram id="C5RBs43oDa-KdzZeNtuy" name="Page-1">
    <mxGraphModel dx="868" dy="440" grid="1" gridSize="10" guides="1" tooltips="1" connect="1" arrows="1" fold="1" page="1" pageScale="1" pageWidth="827" pageHeight="1169" background="#114B5F" math="0" shadow="0">
      <root>
        <mxCell id="WIyWlLk6GJQsqaUBKTNV-0" />
        <mxCell id="WIyWlLk6GJQsqaUBKTNV-1" parent="WIyWlLk6GJQsqaUBKTNV-0" />
        <mxCell id="LNVuYxtHgjX4FnSNNrF1-0" value="" style="rounded=1;whiteSpace=wrap;html=1;fillColor=#F45B69;strokeColor=#028090;fontColor=#E4FDE1;" vertex="1" parent="WIyWlLk6GJQsqaUBKTNV-1">
          <mxGeometry x="354" y="150" width="120" height="60" as="geometry" />
        </mxCell>
        <mxCell id="LNVuYxtHgjX4FnSNNrF1-1" value="" style="rounded=0;whiteSpace=wrap;html=1;fillColor=#F45B69;strokeColor=#028090;fontColor=#E4FDE1;" vertex="1" parent="WIyWlLk6GJQsqaUBKTNV-1">
          <mxGeometry x="354" y="310" width="120" height="60" as="geometry" />
        </mxCell>
        <mxCell id="LNVuYxtHgjX4FnSNNrF1-2" value="" style="rhombus;whiteSpace=wrap;html=1;fillColor=#F45B69;strokeColor=#028090;fontColor=#E4FDE1;" vertex="1" parent="WIyWlLk6GJQsqaUBKTNV-1">
          <mxGeometry x="374" y="390" width="80" height="80" as="geometry" />
        </mxCell>
        <mxCell id="LNVuYxtHgjX4FnSNNrF1-3" value="" style="shape=document;whiteSpace=wrap;html=1;boundedLbl=1;size=0.375;fillColor=#F45B69;strokeColor=#028090;fontColor=#E4FDE1;" vertex="1" parent="WIyWlLk6GJQsqaUBKTNV-1">
          <mxGeometry x="354" y="60" width="120" height="80" as="geometry" />
        </mxCell>
        <mxCell id="LNVuYxtHgjX4FnSNNrF1-4" value="" style="shape=parallelogram;perimeter=parallelogramPerimeter;whiteSpace=wrap;html=1;fixedSize=1;fillColor=#F45B69;strokeColor=#028090;fontColor=#E4FDE1;" vertex="1" parent="WIyWlLk6GJQsqaUBKTNV-1">
          <mxGeometry x="354" y="230" width="120" height="60" as="geometry" />
        </mxCell>
      </root>
    </mxGraphModel>
  </diagram>
</mxfile>
